<?xml version="1.0" encoding="iso-8859-1"?>
<!-- Generator: Adobe Illustrator 19.0.0, SVG Export Plug-In . SVG Version: 6.00 Build 0)  -->
<svg version="1.1" id="Capa_1" xmlns="http://www.w3.org/2000/svg" xmlns:xlink="http://www.w3.org/1999/xlink" x="0px" y="0px"
	 viewBox="0 0 511.998 511.998" style="enable-background:new 0 0 511.998 511.998;" xml:space="preserve">
<path style="fill:#E1E4FB;" d="M242,360.058c0-7.767,6.295-14.06,14.063-14.06c28.988,0,64.828,0,90.938,0c16.569,0,30-13.431,30-30
	s-13.431-30-30-30h-45c-10.946,0-11.658-2.049-20.64-9.946c-39.521-34.775-99.185-34.775-138.736,0l-15.541,13.682l7.31,158.511
	c21.694,11.616,46.172,17.754,70.796,17.754H347c28.198,0,55.107-13.462,71.997-36.021l87.012-125.991
	c10.01-13.299,7.192-32.34-6.363-42.233c-12.358-9.022-29.333-7.191-39.604,3.796l-81.05,100.913
	c-5.506,5.92-16.401,9.536-21.943,9.536c-30.554,0-20.207,0-100.049,0c-8.283,0-15-6.714-15-14.998V360.058z"/>
<path style="fill:#18A7FC;" d="M152,420.998c0,24.814-20.186,45-45,45H15c-8.291,0-15-6.709-15-15v-180c0-8.291,6.709-15,15-15h92
	c24.814,0,45,20.186,45,45V420.998z"/>
<circle style="fill:#0D70B2;" cx="77" cy="330.999" r="15"/>
<path style="fill:#FEDB41;" d="M392,45.998c-26.1,0-50.099,10.8-67.2,30H167c-5.099,0-9.6,2.399-12.599,6.599l-30,45
	c-1.8,2.401-2.401,5.4-2.401,8.401c0,2.999,0.601,6,2.401,8.399l30,45c2.999,4.2,7.5,6.601,12.599,6.601h22.5
	c4.2,0,8.401-1.8,11.4-5.101l14.7-17.098l15,17.098c5.7,6.601,17.1,6.601,22.8,0l15-17.098l14.7,17.098
	c2.999,3.301,7.2,5.101,11.4,5.101h30.3c17.1,19.2,41.1,30,67.2,30c49.501,0,90-40.501,90-90C482,86.497,441.501,45.998,392,45.998z
	 M407,150.998c-8.401,0-15-6.601-15-15c0-8.401,6.599-15,15-15s15,6.599,15,15C422,144.397,415.401,150.998,407,150.998z"/>
<path style="fill:#FFCC33;" d="M422,135.998c0,8.399-6.599,15-15,15s-15-6.601-15-15H122c0,2.999,0.601,6,2.401,8.399l30,45
	c2.999,4.2,7.5,6.601,12.599,6.601h22.5c4.2,0,8.401-1.8,11.4-5.101l14.7-17.098l15,17.098c5.7,6.601,17.1,6.601,22.8,0l15-17.098
	l14.7,17.098c2.999,3.301,7.2,5.101,11.4,5.101h30.3c17.1,19.2,41.1,30,67.2,30c49.501,0,90-40.501,90-90L422,135.998L422,135.998z"
	/>
<g>
</g>
<g>
</g>
<g>
</g>
<g>
</g>
<g>
</g>
<g>
</g>
<g>
</g>
<g>
</g>
<g>
</g>
<g>
</g>
<g>
</g>
<g>
</g>
<g>
</g>
<g>
</g>
<g>
</g>
</svg>
